<svg id="Layer_1" data-name="Layer 1" xmlns="http://www.w3.org/2000/svg" viewBox="0 0 29.81 36"><defs><style>.cls-1{fill:#002169;}.cls-2{fill:#fff;}</style></defs><title>Rice_Shield_280_Blue</title><path class="cls-1" d="M37.36,22.17A21.23,21.23,0,0,1,24.11,41.85a4.48,4.48,0,0,1-3.3,0A21.24,21.24,0,0,1,7.55,22.17V9.37a1.23,1.23,0,0,1,.89-1.19,48.94,48.94,0,0,1,11.3-1.94c.9,0,1.81-.07,2.72-.07a49.55,49.55,0,0,1,14,2,1.22,1.22,0,0,1,.88,1.19Z" transform="translate(-7.55 -6.17)"/><path class="cls-2" d="M22.17,31.08a.49.49,0,0,0-.49.49.54.54,0,0,0,.05.22h0l.39.82a.07.07,0,0,0,.11,0l.39-.82a.54.54,0,0,0,.05-.22A.49.49,0,0,0,22.17,31.08Z" transform="translate(-7.55 -6.17)"/><path class="cls-2" d="M20.16,32.86a.47.47,0,0,0-.24-.42l-.05,0a.09.09,0,0,0-.14.07,3.4,3.4,0,0,0,0,.45,3.75,3.75,0,0,0,.57,2,3,3,0,0,0,.34.46.08.08,0,0,0,.08,0,.07.07,0,0,0,0-.1A4.86,4.86,0,0,1,20.16,33Z" transform="translate(-7.55 -6.17)"/><polygon class="cls-2" points="13.96 32.28 13.96 32.28 13.96 32.28 13.96 32.28"/><path class="cls-2" d="M22.52,37.75c.05-.08.1-.16.14-.24a.2.2,0,0,0-.07-.27l-.11-.07a.07.07,0,0,0-.09,0,3.92,3.92,0,0,1-.34.64.6.6,0,0,1-.53.29h-.17a.27.27,0,0,0-.24.16l0,.07a.05.05,0,0,0,.05.08h.1a.05.05,0,0,0,.06,0h0a.21.21,0,0,1,.27-.12.05.05,0,0,1,0,0l0,0a.06.06,0,0,0,.06.08H22a.07.07,0,0,0,.06,0h0l0-.09,0-.11a.54.54,0,0,1,.22-.25A.58.58,0,0,0,22.52,37.75Z" transform="translate(-7.55 -6.17)"/><polygon class="cls-2" points="15.17 32.28 15.18 32.28 15.17 32.28 15.17 32.28"/><path class="cls-2" d="M23.73,37.1a.06.06,0,0,0-.09,0,4.89,4.89,0,0,1-.37.72.6.6,0,0,1-.53.29h-.18a.26.26,0,0,0-.23.16h0l0,.07a.06.06,0,0,0,.06.08h.1a.05.05,0,0,0,.06,0h0a.22.22,0,0,1,.28-.12,0,0,0,0,1,0,0v0a.05.05,0,0,0,.05.08h.41a.25.25,0,0,0,.09,0l.06,0a.16.16,0,0,1,.15,0,.24.24,0,0,0,.11.06h0a.25.25,0,0,0,.12,0h.11a0,0,0,0,0,0,0l0-.15a.16.16,0,0,0-.16-.13h-.13a.06.06,0,0,1,0-.09l.07-.11c.08-.11.16-.23.23-.35a1.09,1.09,0,0,0,.08-.15.19.19,0,0,0-.07-.26Z" transform="translate(-7.55 -6.17)"/><path class="cls-2" d="M24,30.11a0,0,0,0,0,0,0,1,1,0,0,1,.19.26.41.41,0,0,0,.26.2,1.4,1.4,0,0,1,.53.27h0s0,0,0,0h0a1.62,1.62,0,0,0-.28-.9.25.25,0,0,0-.14-.08h-.05a.87.87,0,0,0-.58.24S24,30.1,24,30.11Z" transform="translate(-7.55 -6.17)"/><path class="cls-2" d="M24.37,30.88a0,0,0,0,0,0,0,.89.89,0,0,1-.12.38.37.37,0,0,0,0,.29,1.12,1.12,0,0,1,.09.56v0l0,0h0a1.53,1.53,0,0,0,.58-.63.44.44,0,0,0,0-.25.42.42,0,0,0-.13-.21,1,1,0,0,0-.45-.21Z" transform="translate(-7.55 -6.17)"/><path class="cls-2" d="M22.9,30h0a.91.91,0,0,1,.48-.13l.19,0h.08a.32.32,0,0,0,.21-.08,1.35,1.35,0,0,1,.51-.25s0,0,0,0,0,0,0,0a1.85,1.85,0,0,0-.45-.21l-.18,0-.18,0a.82.82,0,0,0-.42.22,1.31,1.31,0,0,0-.3.44s0,0,0,0S22.88,30,22.9,30Z" transform="translate(-7.55 -6.17)"/><path class="cls-2" d="M21.7,29.7a2.13,2.13,0,0,1,.18.52,2.74,2.74,0,0,1,0,.58s0,0,0,0h0a.64.64,0,0,1,.2,0,.66.66,0,0,1,.21,0h0s0,0,0,0a2.74,2.74,0,0,1,0-.58,2.13,2.13,0,0,1,.18-.52,2.39,2.39,0,0,1,.13-.21.08.08,0,0,0,0,0l0,0a0,0,0,0,0,0,0,1.43,1.43,0,0,0-.45.36.13.13,0,0,1-.12.05.13.13,0,0,1-.11-.05,1.55,1.55,0,0,0-.45-.36s0,0,0,0l0,0s0,0,0,0Z" transform="translate(-7.55 -6.17)"/><path class="cls-2" d="M20.48,29.83a.32.32,0,0,0,.21.08h.08l.19,0a.85.85,0,0,1,.47.13h0s0,0,0,0,0,0,0,0a1.31,1.31,0,0,0-.3-.44.82.82,0,0,0-.42-.22l-.18,0-.18,0a1.85,1.85,0,0,0-.45.21s0,0,0,0,0,0,0,0A1.35,1.35,0,0,1,20.48,29.83Z" transform="translate(-7.55 -6.17)"/><path class="cls-2" d="M20.12,30.4a1,1,0,0,1,.19-.26,0,0,0,0,0,0,0s0,0,0,0a.88.88,0,0,0-.59-.24h0a.22.22,0,0,0-.14.08,1.62,1.62,0,0,0-.28.9h0a0,0,0,0,0,0,0h0a1.52,1.52,0,0,1,.54-.27A.41.41,0,0,0,20.12,30.4Z" transform="translate(-7.55 -6.17)"/><path class="cls-2" d="M20,32.19l0,0v0a1.23,1.23,0,0,1,.08-.56.33.33,0,0,0,0-.29.89.89,0,0,1-.12-.38,0,0,0,0,0,0,0h0a1,1,0,0,0-.45.21.36.36,0,0,0-.13.21.33.33,0,0,0,0,.24,1.65,1.65,0,0,0,.59.64Z" transform="translate(-7.55 -6.17)"/><path class="cls-2" d="M24.06,36.22h0a4.83,4.83,0,0,1-.87-1.46A4.91,4.91,0,0,1,22.87,33a2.81,2.81,0,0,1,0-.29,0,0,0,0,0,0,0h0a.09.09,0,0,1-.08-.09.21.21,0,0,1,.22-.21h.51l.23,0a.28.28,0,0,0,.24-.25,1,1,0,0,0-.07-.48.05.05,0,0,0,0,0,0,0,0,0,0,0,0,1,1,0,0,1-.46.12,1,1,0,0,1-.41-.09h0s0,0,0,0a.66.66,0,0,1-.06.2l-.46.95a.24.24,0,0,1-.24.15.24.24,0,0,1-.23-.15l-.46-.95a.66.66,0,0,1-.06-.2s0,0,0,0h0a1,1,0,0,1-.41.09,1,1,0,0,1-.46-.12,0,0,0,0,0,0,0,.05.05,0,0,0,0,0,1,1,0,0,0-.07.48.28.28,0,0,0,.24.25l.23,0h.51a.21.21,0,0,1,.22.21.09.09,0,0,1-.08.09h-.65a1.53,1.53,0,0,1-.3,0h0a.1.1,0,0,0-.1.09c0,.08,0,.16,0,.25a4.63,4.63,0,0,0,.71,2.45,5.22,5.22,0,0,0,.74.89,5.16,5.16,0,0,0,.93.68h0l0,0a.42.42,0,0,1,0-.1.82.82,0,0,0,0-.31.54.54,0,0,0-.15-.29,4.71,4.71,0,0,1-.57-.76.08.08,0,0,1,0-.07.07.07,0,0,1,0,0,.2.2,0,0,1,.11,0,.21.21,0,0,1,.18.09,4.12,4.12,0,0,0,.76.9,4.24,4.24,0,0,0,.39.33l.36.23h0l0,0,.06-.17a.61.61,0,0,0,0-.3.57.57,0,0,0-.13-.27Z" transform="translate(-7.55 -6.17)"/><path class="cls-2" d="M24.56,36.72h0s0,0,0,0a5.46,5.46,0,0,1-.26.67v0s0,0,0,0a7.32,7.32,0,0,0,.94.37h0a.09.09,0,0,0,.06,0l.13-.23.06-.09a.11.11,0,0,0,0-.15A4.72,4.72,0,0,1,24.56,36.72Z" transform="translate(-7.55 -6.17)"/><path class="cls-2" d="M26.29,36.77a3.56,3.56,0,0,1-.65-.32,4.19,4.19,0,0,1-.93-.8,4.12,4.12,0,0,1-.77-1.35.13.13,0,0,1,0-.06s0,0,.05,0h.06a.21.21,0,0,1,.21.14,3.93,3.93,0,0,0,.67,1.13,4,4,0,0,0,.86.73,3.69,3.69,0,0,0,.75.36h0a0,0,0,0,0,0,0l0-.2h0a.77.77,0,0,0-.38-.53,3.17,3.17,0,0,1-.82-.68,3.07,3.07,0,0,1-.68-1.33.08.08,0,0,1,0-.07.05.05,0,0,1,.05,0h.05a.23.23,0,0,1,.21.16,3.57,3.57,0,0,0,.23.57,2.7,2.7,0,0,0,.35.51,2.64,2.64,0,0,0,.78.63h0l0,0s0,0,0,0A13,13,0,0,0,26,33.84a3.45,3.45,0,0,0-.46-.87,3.08,3.08,0,0,0-.68-.67l-.09,0a.2.2,0,0,0-.11,0,1.91,1.91,0,0,1-.54.3,1.88,1.88,0,0,1-.62.11h-.23a.09.09,0,0,0-.09.09,1.55,1.55,0,0,0,0,.22,4.47,4.47,0,0,0,.3,1.62,4.58,4.58,0,0,0,3.28,2.85h0a0,0,0,0,0,0,0,.83.83,0,0,0,0-.15A.72.72,0,0,0,26.29,36.77Z" transform="translate(-7.55 -6.17)"/><path class="cls-2" d="M23.4,37.06l.05-.12s0,0,0,0l-.18-.14s0,0-.05,0,0,.09-.05.14a0,0,0,0,0,0,.05l.19.11S23.39,37.07,23.4,37.06Z" transform="translate(-7.55 -6.17)"/><path class="cls-2" d="M23.39,30.16a.67.67,0,1,0,0,1.34.67.67,0,0,0,0-1.34Zm0,1.13a.46.46,0,0,1-.44-.45.44.44,0,0,1,.3-.44s.06,0,0,.05a.37.37,0,0,0-.09.25.36.36,0,0,0,.34.33.33.33,0,0,0,.24-.08,0,0,0,0,1,.06,0A.47.47,0,0,1,23.37,31.29Z" transform="translate(-7.55 -6.17)"/><path class="cls-2" d="M21,30.16a.67.67,0,1,0,.67.67A.67.67,0,0,0,21,30.16Zm0,1.13a.48.48,0,0,1-.45-.45.47.47,0,0,1,.31-.44s.06,0,0,.05a.37.37,0,0,0-.09.25.36.36,0,0,0,.58.25s.07,0,.05,0A.46.46,0,0,1,21,31.29Z" transform="translate(-7.55 -6.17)"/><path class="cls-2" d="M12.92,11a.49.49,0,0,0-.49.49.42.42,0,0,0,.05.22h0l.38.82a.07.07,0,0,0,.11,0l.39-.82a.54.54,0,0,0,.05-.22A.49.49,0,0,0,12.92,11Z" transform="translate(-7.55 -6.17)"/><path class="cls-2" d="M10.9,12.75a.46.46,0,0,0-.23-.42l-.05,0a.1.1,0,0,0-.15.07c0,.15,0,.3,0,.45a3.75,3.75,0,0,0,.57,2,3.83,3.83,0,0,0,.33.46.08.08,0,0,0,.08,0,.07.07,0,0,0,0-.1,5,5,0,0,1-.56-2.27Z" transform="translate(-7.55 -6.17)"/><polygon class="cls-2" points="4.7 12.17 4.7 12.17 4.7 12.17 4.7 12.17"/><path class="cls-2" d="M13.26,17.64l.15-.24a.2.2,0,0,0-.08-.27l-.11-.07a.06.06,0,0,0-.08,0,4.89,4.89,0,0,1-.34.64.61.61,0,0,1-.53.29h-.18a.26.26,0,0,0-.23.16l0,.08a.05.05,0,0,0,.05.07H12a.06.06,0,0,0,.06,0h0a.22.22,0,0,1,.28-.12,0,0,0,0,1,0,0v0a.05.05,0,0,0,.05.08h.31a.06.06,0,0,0,.06,0h0l0-.09,0-.11a.45.45,0,0,1,.22-.25A.64.64,0,0,0,13.26,17.64Z" transform="translate(-7.55 -6.17)"/><polygon class="cls-2" points="5.92 12.17 5.92 12.17 5.92 12.17 5.92 12.17"/><path class="cls-2" d="M14.47,17a.07.07,0,0,0-.09,0,4.08,4.08,0,0,1-.37.72.6.6,0,0,1-.53.29h-.17a.27.27,0,0,0-.24.16h0l0,.07a.05.05,0,0,0,0,.08h.1a.05.05,0,0,0,.06,0h0a.21.21,0,0,1,.27-.12.05.05,0,0,1,0,0l0,0a.06.06,0,0,0,.06.08H14l.1,0,.06,0a.12.12,0,0,1,.14,0,.24.24,0,0,0,.11.06h0a.25.25,0,0,0,.12,0h.11a0,0,0,0,0,0,0l0-.15a.18.18,0,0,0-.17-.13h-.13a.06.06,0,0,1-.05-.09l.08-.11c.08-.11.16-.23.23-.35l.08-.15a.19.19,0,0,0-.07-.26Z" transform="translate(-7.55 -6.17)"/><path class="cls-2" d="M14.77,10a0,0,0,0,0,0,0,1,1,0,0,1,.19.26.4.4,0,0,0,.27.2,1.56,1.56,0,0,1,.53.27h0a0,0,0,0,0,0,0h0a1.62,1.62,0,0,0-.28-.9.22.22,0,0,0-.14-.08h0a.88.88,0,0,0-.59.24S14.77,10,14.77,10Z" transform="translate(-7.55 -6.17)"/><path class="cls-2" d="M15.11,10.77a0,0,0,0,0,0,0,.89.89,0,0,1-.12.38.33.33,0,0,0,0,.29A1.4,1.4,0,0,1,15,12a0,0,0,0,0,0,0h0a1.63,1.63,0,0,0,.59-.63.37.37,0,0,0,0-.25.36.36,0,0,0-.13-.21,1.06,1.06,0,0,0-.44-.21Z" transform="translate(-7.55 -6.17)"/><path class="cls-2" d="M13.64,9.9h0a.85.85,0,0,1,.47-.13l.2,0h.07a.35.35,0,0,0,.22-.08,1.24,1.24,0,0,1,.5-.25s0,0,0,0,0,0,0,0a1.57,1.57,0,0,0-.45-.22l-.18,0-.18,0a.86.86,0,0,0-.42.22,1.17,1.17,0,0,0-.29.44s0,0,0,0Z" transform="translate(-7.55 -6.17)"/><path class="cls-2" d="M12.44,9.59a2.13,2.13,0,0,1,.18.52,2.21,2.21,0,0,1,0,.58s0,0,0,0h0a.75.75,0,0,1,.42,0h0s0,0,0,0a2.2,2.2,0,0,1,.05-.58,1.77,1.77,0,0,1,.17-.52c0-.07.09-.14.14-.21s0,0,0,0l0,0h0a1.55,1.55,0,0,0-.45.36.14.14,0,0,1-.11.06.14.14,0,0,1-.12-.06,1.39,1.39,0,0,0-.44-.36h0s0,0,0,0,0,0,0,0A2.39,2.39,0,0,1,12.44,9.59Z" transform="translate(-7.55 -6.17)"/><path class="cls-2" d="M11.22,9.72a.35.35,0,0,0,.22.08h.07l.2,0a.9.9,0,0,1,.47.13h0l0,0s0,0,0,0a1.08,1.08,0,0,0-.3-.44.78.78,0,0,0-.42-.22l-.17,0-.19,0a1.57,1.57,0,0,0-.45.22s0,0,0,0a0,0,0,0,0,0,0A1.38,1.38,0,0,1,11.22,9.72Z" transform="translate(-7.55 -6.17)"/><path class="cls-2" d="M10.86,10.29a1.24,1.24,0,0,1,.19-.26l0,0,0,0a.87.87,0,0,0-.58-.24h-.05a.22.22,0,0,0-.13.08,1.55,1.55,0,0,0-.28.9h0s0,0,0,0h0a1.4,1.4,0,0,1,.53-.27A.41.41,0,0,0,10.86,10.29Z" transform="translate(-7.55 -6.17)"/><path class="cls-2" d="M10.78,12.08h0a0,0,0,0,0,0,0,1.4,1.4,0,0,1,.09-.56.37.37,0,0,0,0-.29,1.29,1.29,0,0,1-.12-.38s0,0,0,0h0a1,1,0,0,0-.45.21.42.42,0,0,0-.13.21.4.4,0,0,0,0,.24,1.52,1.52,0,0,0,.59.64Z" transform="translate(-7.55 -6.17)"/><path class="cls-2" d="M14.8,16.11h0a5,5,0,0,1-.87-1.46,4.9,4.9,0,0,1-.31-1.73v-.31h0a.09.09,0,0,1-.09-.09.21.21,0,0,1,.22-.21h.51l.24,0a.28.28,0,0,0,.23-.25,1,1,0,0,0-.07-.47l0,0s0,0,0,0a.93.93,0,0,1-.46.12.9.9,0,0,1-.4-.09h0s0,0,0,0a.66.66,0,0,1-.06.2l-.45.95a.26.26,0,0,1-.24.15.24.24,0,0,1-.24-.15l-.45-.95a.68.68,0,0,1-.07-.2,0,0,0,0,0,0,0h0a.94.94,0,0,1-.86,0h0a0,0,0,0,0,0,0,1,1,0,0,0-.08.47.28.28,0,0,0,.24.25l.23,0h.51a.21.21,0,0,1,.22.21.08.08,0,0,1-.08.09h-.65a1.36,1.36,0,0,1-.29,0h0a.09.09,0,0,0-.09.09,2,2,0,0,0,0,.25,4.51,4.51,0,0,0,.71,2.45,5.16,5.16,0,0,0,.73.89,5.23,5.23,0,0,0,.94.68h0l0,0a1,1,0,0,0,0-.1.55.55,0,0,0,0-.31.61.61,0,0,0-.14-.29,4.77,4.77,0,0,1-.58-.76.15.15,0,0,1,0-.07.1.1,0,0,1,0-.05.23.23,0,0,1,.11,0,.2.2,0,0,1,.18.1,4.32,4.32,0,0,0,.76.89,4.12,4.12,0,0,0,.4.33,3.17,3.17,0,0,0,.36.23s0,0,0,0l0,0,.06-.17a.51.51,0,0,0,0-.3.57.57,0,0,0-.13-.27Z" transform="translate(-7.55 -6.17)"/><path class="cls-2" d="M15.3,16.61h0a0,0,0,0,0,0,0c-.08.23-.17.45-.27.67v0l0,0a8.26,8.26,0,0,0,.94.36h0a.07.07,0,0,0,.06,0c.05-.07.09-.15.14-.23l.05-.09a.11.11,0,0,0,0-.15A5.18,5.18,0,0,1,15.3,16.61Z" transform="translate(-7.55 -6.17)"/><path class="cls-2" d="M17,16.66a3,3,0,0,1-.65-.32,4.24,4.24,0,0,1-.94-.8,3.92,3.92,0,0,1-.76-1.35.06.06,0,0,1,0-.06.07.07,0,0,1,.05,0h.07a.23.23,0,0,1,.21.14,3.68,3.68,0,0,0,.66,1.13,3.84,3.84,0,0,0,.87.73,3.24,3.24,0,0,0,.75.36h0s0,0,0,0l0-.2h0a.75.75,0,0,0-.37-.53,3.14,3.14,0,0,1-1.51-2,.09.09,0,0,1,0-.07.09.09,0,0,1,.05,0h0a.22.22,0,0,1,.21.16,2.87,2.87,0,0,0,.24.57,2,2,0,0,0,.35.51,2.73,2.73,0,0,0,.77.63h.05a0,0,0,0,0,0,0,12.72,12.72,0,0,0-.43-1.65,3.16,3.16,0,0,0-.46-.87,2.7,2.7,0,0,0-.68-.67l-.09,0a.17.17,0,0,0-.1,0,2,2,0,0,1-.55.3,1.88,1.88,0,0,1-.62.11H14a.1.1,0,0,0-.1.09v.22a4.5,4.5,0,0,0,1.11,3,4.54,4.54,0,0,0,1.11.94,4.77,4.77,0,0,0,1.35.54h0s0,0,0,0l0-.15A.76.76,0,0,0,17,16.66Z" transform="translate(-7.55 -6.17)"/><path class="cls-2" d="M14.15,17s0-.08,0-.12a0,0,0,0,0,0,0L14,16.64s-.05,0-.06,0a1.21,1.21,0,0,1,0,.14s0,0,0,.05l.19.11A0,0,0,0,0,14.15,17Z" transform="translate(-7.55 -6.17)"/><path class="cls-2" d="M14.13,10.05a.67.67,0,1,0,.67.67A.67.67,0,0,0,14.13,10.05Zm0,1.13a.46.46,0,0,1-.15-.89s.07,0,0,.05a.36.36,0,0,0-.08.25.34.34,0,0,0,.33.33.33.33,0,0,0,.24-.08,0,0,0,0,1,.06,0A.47.47,0,0,1,14.12,11.18Z" transform="translate(-7.55 -6.17)"/><path class="cls-2" d="M11.71,10.05a.67.67,0,1,0,.67.67A.67.67,0,0,0,11.71,10.05Zm0,1.13a.46.46,0,0,1-.45-.45.44.44,0,0,1,.3-.44s.06,0,0,.05a.37.37,0,0,0-.09.25.36.36,0,0,0,.34.33.33.33,0,0,0,.24-.08,0,0,0,0,1,.06,0A.47.47,0,0,1,11.7,11.18Z" transform="translate(-7.55 -6.17)"/><path class="cls-2" d="M30.32,11a.49.49,0,0,0-.49.49.42.42,0,0,0,.05.22h0l.39.82a.06.06,0,0,0,.1,0l.39-.82a.54.54,0,0,0,0-.22A.49.49,0,0,0,30.32,11Z" transform="translate(-7.55 -6.17)"/><path class="cls-2" d="M28.31,12.75a.49.49,0,0,0-.24-.42l-.05,0a.09.09,0,0,0-.14.07,3.4,3.4,0,0,0,0,.45,3.75,3.75,0,0,0,.57,2,3.83,3.83,0,0,0,.33.46.08.08,0,0,0,.08,0,.07.07,0,0,0,0-.1,4.87,4.87,0,0,1-.57-2.27A1,1,0,0,1,28.31,12.75Z" transform="translate(-7.55 -6.17)"/><polygon class="cls-2" points="22.1 12.17 22.1 12.17 22.1 12.17 22.1 12.17"/><path class="cls-2" d="M30.66,17.64l.15-.24a.2.2,0,0,0-.08-.27l-.11-.07a.06.06,0,0,0-.08,0,4.89,4.89,0,0,1-.34.64.6.6,0,0,1-.53.29h-.18a.26.26,0,0,0-.23.16l0,.08a.06.06,0,0,0,.06.07h.1a.05.05,0,0,0,.06,0h0a.22.22,0,0,1,.28-.12,0,0,0,0,1,0,0v0a.05.05,0,0,0,.05.08h.31a.06.06,0,0,0,.06,0h0l0-.09,0-.11a.45.45,0,0,1,.22-.25A.64.64,0,0,0,30.66,17.64Z" transform="translate(-7.55 -6.17)"/><polygon class="cls-2" points="23.32 12.17 23.32 12.17 23.32 12.17 23.32 12.17"/><path class="cls-2" d="M31.87,17a.07.07,0,0,0-.09,0,4.84,4.84,0,0,1-.36.72.62.62,0,0,1-.53.29h-.18a.25.25,0,0,0-.23.16h0l0,.07a.05.05,0,0,0,.05.08h.1a.07.07,0,0,0,.07,0h0a.21.21,0,0,1,.28-.12,0,0,0,0,1,0,0l0,0a.06.06,0,0,0,.06.08h.41l.09,0,.06,0a.12.12,0,0,1,.14,0,.24.24,0,0,0,.11.06h0a.27.27,0,0,0,.13,0h.1a0,0,0,0,0,0,0l0-.15a.18.18,0,0,0-.16-.13h-.14a.06.06,0,0,1,0-.09l.08-.11c.08-.11.16-.23.23-.35l.08-.15a.19.19,0,0,0-.07-.26Z" transform="translate(-7.55 -6.17)"/><path class="cls-2" d="M32.17,10a0,0,0,0,0,0,0,.79.79,0,0,1,.19.26.43.43,0,0,0,.27.2,1.56,1.56,0,0,1,.53.27h0a0,0,0,0,0,0,0h0a1.62,1.62,0,0,0-.28-.9.22.22,0,0,0-.13-.08h0a.9.9,0,0,0-.59.24Z" transform="translate(-7.55 -6.17)"/><path class="cls-2" d="M32.51,10.77s0,0,0,0a1,1,0,0,1-.11.38.3.3,0,0,0,0,.29,1.4,1.4,0,0,1,.09.56,0,0,0,0,0,0,0h0a1.56,1.56,0,0,0,.59-.63.37.37,0,0,0,0-.25A.36.36,0,0,0,33,11a1.06,1.06,0,0,0-.44-.21Z" transform="translate(-7.55 -6.17)"/><path class="cls-2" d="M31,9.9h0a.88.88,0,0,1,.47-.13l.2,0h.07A.35.35,0,0,0,32,9.72a1.24,1.24,0,0,1,.5-.25,0,0,0,0,0,0,0s0,0,0,0a1.57,1.57,0,0,0-.45-.22l-.18,0-.17,0a.85.85,0,0,0-.43.22,1.17,1.17,0,0,0-.29.44s0,0,0,0Z" transform="translate(-7.55 -6.17)"/><path class="cls-2" d="M29.84,9.59a2.13,2.13,0,0,1,.18.52,2.21,2.21,0,0,1,0,.58v0h0a.75.75,0,0,1,.42,0h0v0a2.21,2.21,0,0,1,0-.58,1.53,1.53,0,0,1,.18-.52,2.39,2.39,0,0,1,.13-.21s0,0,0,0l0,0h0a1.55,1.55,0,0,0-.45.36.13.13,0,0,1-.22,0,1.55,1.55,0,0,0-.45-.36h0l0,0s0,0,0,0A2.39,2.39,0,0,1,29.84,9.59Z" transform="translate(-7.55 -6.17)"/><path class="cls-2" d="M28.62,9.72a.35.35,0,0,0,.22.08h.07l.2,0a.88.88,0,0,1,.47.13h0l0,0s0,0,0,0a1.17,1.17,0,0,0-.29-.44.85.85,0,0,0-.43-.22l-.17,0-.18,0a1.45,1.45,0,0,0-.45.22s0,0,0,0a0,0,0,0,0,0,0A1.31,1.31,0,0,1,28.62,9.72Z" transform="translate(-7.55 -6.17)"/><path class="cls-2" d="M28.26,10.29a1,1,0,0,1,.2-.26v0a.9.9,0,0,0-.59-.24h-.05a.22.22,0,0,0-.13.08,1.55,1.55,0,0,0-.28.9h0a0,0,0,0,0,0,0h0a1.47,1.47,0,0,1,.53-.27A.38.38,0,0,0,28.26,10.29Z" transform="translate(-7.55 -6.17)"/><path class="cls-2" d="M28.19,12.08h0a0,0,0,0,0,0,0,1.4,1.4,0,0,1,.09-.56.33.33,0,0,0,0-.29,1.29,1.29,0,0,1-.12-.38s0,0,0,0h0a1,1,0,0,0-.45.21.35.35,0,0,0-.12.21.33.33,0,0,0,0,.24,1.52,1.52,0,0,0,.59.64Z" transform="translate(-7.55 -6.17)"/><path class="cls-2" d="M32.2,16.11h0a5,5,0,0,1-.87-1.46A4.9,4.9,0,0,1,31,12.92a2.53,2.53,0,0,1,0-.28v0h0a.08.08,0,0,1-.08-.09.21.21,0,0,1,.21-.21h.51l.24,0a.29.29,0,0,0,.24-.25,1,1,0,0,0-.08-.47,0,0,0,0,0,0,0h0a.93.93,0,0,1-.46.12.9.9,0,0,1-.4-.09h0a0,0,0,0,0,0,0,1.18,1.18,0,0,1-.07.2l-.45.95a.27.27,0,0,1-.48,0l-.45-.95a1.18,1.18,0,0,1-.07-.2,0,0,0,0,0,0,0h0a.9.9,0,0,1-.4.09.93.93,0,0,1-.46-.12h0a0,0,0,0,0,0,0,1,1,0,0,0-.08.47.29.29,0,0,0,.24.25l.24,0h.51a.21.21,0,0,1,.21.21.08.08,0,0,1-.08.09H29l-.3,0h0a.09.09,0,0,0-.09.09,2,2,0,0,0,0,.25,4.6,4.6,0,0,0,.71,2.45A4.71,4.71,0,0,0,31,16.94h0l0,0a.3.3,0,0,0,0-.1.55.55,0,0,0,0-.31.61.61,0,0,0-.14-.29,4.77,4.77,0,0,1-.58-.76.15.15,0,0,1,0-.07.1.1,0,0,1,0-.05.23.23,0,0,1,.11,0,.19.19,0,0,1,.18.1,4.64,4.64,0,0,0,.76.89,4.12,4.12,0,0,0,.4.33,3.17,3.17,0,0,0,.36.23s0,0,0,0l0,0,.06-.17a.62.62,0,0,0,0-.3.59.59,0,0,0-.14-.27Z" transform="translate(-7.55 -6.17)"/><path class="cls-2" d="M32.71,16.61h0a0,0,0,0,0,0,0,4.27,4.27,0,0,1-.27.67v0l0,0a8.26,8.26,0,0,0,.94.36h0a.06.06,0,0,0,.06,0,1.76,1.76,0,0,0,.14-.23l0-.09a.11.11,0,0,0,0-.15A4.72,4.72,0,0,1,32.71,16.61Z" transform="translate(-7.55 -6.17)"/><path class="cls-2" d="M34.9,17.2a.76.76,0,0,0-.46-.54,3.27,3.27,0,0,1-.65-.32,4.19,4.19,0,0,1-.93-.8,3.79,3.79,0,0,1-.77-1.35.06.06,0,0,1,0-.06.07.07,0,0,1,0,0h.07a.23.23,0,0,1,.21.14,3.9,3.9,0,0,0,.66,1.13,3.84,3.84,0,0,0,.87.73,3.45,3.45,0,0,0,.75.36h0a0,0,0,0,0,0,0c0-.07,0-.13,0-.2h0a.73.73,0,0,0-.37-.53,3.39,3.39,0,0,1-.83-.68,3.18,3.18,0,0,1-.68-1.33.17.17,0,0,1,0-.07.09.09,0,0,1,0,0h0a.24.24,0,0,1,.22.16,2.35,2.35,0,0,0,.23.57,2.3,2.3,0,0,0,.35.51,2.73,2.73,0,0,0,.77.63h.05a0,0,0,0,0,0,0,12.72,12.72,0,0,0-.43-1.65,3.16,3.16,0,0,0-.46-.87,2.7,2.7,0,0,0-.68-.67l-.09,0a.17.17,0,0,0-.1,0,2,2,0,0,1-.55.3,1.84,1.84,0,0,1-.62.11h-.22a.1.1,0,0,0-.1.09v.22a4.5,4.5,0,0,0,1.11,3,4.54,4.54,0,0,0,1.11.94,4.77,4.77,0,0,0,1.35.54h0v0A.83.83,0,0,1,34.9,17.2Z" transform="translate(-7.55 -6.17)"/><path class="cls-2" d="M31.55,17s0-.08,0-.12a0,0,0,0,0,0,0l-.18-.14s0,0-.06,0,0,.09,0,.14a0,0,0,0,0,0,.05l.19.11A0,0,0,0,0,31.55,17Z" transform="translate(-7.55 -6.17)"/><path class="cls-2" d="M31.53,10.05a.67.67,0,1,0,.67.67A.67.67,0,0,0,31.53,10.05Zm0,1.13a.48.48,0,0,1-.45-.45.46.46,0,0,1,.3-.44s.07,0,0,.05a.36.36,0,0,0-.08.25.35.35,0,0,0,.33.33.32.32,0,0,0,.24-.08,0,0,0,0,1,.06,0A.47.47,0,0,1,31.52,11.18Z" transform="translate(-7.55 -6.17)"/><path class="cls-2" d="M29.11,10.05a.67.67,0,1,0,.67.67A.67.67,0,0,0,29.11,10.05Zm0,1.13a.46.46,0,0,1-.45-.45.44.44,0,0,1,.3-.44,0,0,0,0,1,0,.05.32.32,0,0,0-.08.25.34.34,0,0,0,.33.33.33.33,0,0,0,.24-.08,0,0,0,0,1,.06,0A.47.47,0,0,1,29.1,11.18Z" transform="translate(-7.55 -6.17)"/><path class="cls-2" d="M22.46,20.17,10.79,31.84a18,18,0,0,0,1.14,1.87c.13.2.27.39.41.58L22.46,24.17,32.58,34.29l.41-.58c.41-.6.79-1.23,1.14-1.87Z" transform="translate(-7.55 -6.17)"/><path class="cls-2" d="M22.46,14.17,9.07,27.56a20.63,20.63,0,0,0,1.06,2.94L22.46,18.17,34.79,30.5a19,19,0,0,0,1.05-2.94Z" transform="translate(-7.55 -6.17)"/></svg>